<svg width="246" height="160" viewBox="0 0 246 160" fill="none" xmlns="http://www.w3.org/2000/svg">
<path d="M54 122.88C54.7067 122.88 55.52 122.98 56.44 123.18C57.3733 123.38 58.0533 123.593 58.48 123.82V127.7H57.72C56.4933 125.607 54.8667 124.56 52.84 124.56C51.96 124.56 51.1533 124.82 50.42 125.34C49.7 125.847 49.1333 126.56 48.72 127.48C48.3067 128.387 48.1 129.407 48.1 130.54C48.1 131.847 48.3 133.04 48.7 134.12C49.1133 135.2 49.7333 136.067 50.56 136.72C51.4 137.373 52.4333 137.7 53.66 137.7C54.7933 137.7 56.42 136.847 58.54 135.14L59.14 136.1L55.46 138.96C54.9667 139.133 54.4867 139.247 54.02 139.3C53.5667 139.367 53.0733 139.4 52.54 139.4C51.14 139.4 49.9 139.06 48.82 138.38C47.74 137.7 46.9 136.767 46.3 135.58C45.7 134.38 45.4 133.02 45.4 131.5C45.4 129.94 45.8533 128.5 46.76 127.18C47.6667 125.847 48.7933 124.8 50.14 124.04C51.4867 123.267 52.7733 122.88 54 122.88ZM70.4062 122.88C71.8196 122.88 73.0663 123.22 74.1463 123.9C75.2396 124.58 76.0863 125.52 76.6863 126.72C77.2863 127.92 77.5863 129.28 77.5863 130.8C77.5863 132.36 77.1329 133.8 76.2263 135.12C75.3196 136.44 74.1929 137.487 72.8463 138.26C71.4996 139.02 70.2129 139.4 68.9863 139.4C67.5729 139.4 66.3196 139.067 65.2263 138.4C64.1463 137.72 63.3063 136.78 62.7063 135.58C62.1063 134.38 61.8063 133.02 61.8063 131.5C61.8063 129.94 62.2596 128.5 63.1663 127.18C64.0729 125.847 65.1996 124.8 66.5463 124.04C67.8929 123.267 69.1796 122.88 70.4062 122.88ZM69.2463 124.56C68.3663 124.56 67.5596 124.82 66.8263 125.34C66.1063 125.847 65.5396 126.56 65.1263 127.48C64.7129 128.387 64.5063 129.407 64.5063 130.54C64.5063 131.847 64.7129 133.047 65.1263 134.14C65.5396 135.22 66.1663 136.087 67.0063 136.74C67.8596 137.393 68.9063 137.72 70.1463 137.72C71.0263 137.72 71.8263 137.467 72.5463 136.96C73.2796 136.44 73.8529 135.727 74.2663 134.82C74.6796 133.9 74.8863 132.873 74.8863 131.74C74.8863 130.42 74.6796 129.22 74.2663 128.14C73.8529 127.047 73.2263 126.18 72.3863 125.54C71.5463 124.887 70.4996 124.56 69.2463 124.56ZM101.14 125.26L96.3405 138.36L94.2605 139.38L91.0805 129.96L88.1005 138.36L86.0205 139.38L80.8805 125.22L78.9805 124.08L79.3805 123.28H84.8605V123.9L83.4005 125L87.5605 136.72L90.5405 128.4L89.4605 125.2L87.6205 124.08L88.0205 123.28H93.9005V123.9L92.1205 125.28L95.8405 136.68L99.9605 125.28L96.4005 124.08L96.8005 123.28H102.88V123.9L101.14 125.26ZM112.887 122.88C114.3 122.88 115.547 123.22 116.627 123.9C117.72 124.58 118.567 125.52 119.167 126.72C119.767 127.92 120.067 129.28 120.067 130.8C120.067 132.36 119.613 133.8 118.707 135.12C117.8 136.44 116.673 137.487 115.327 138.26C113.98 139.02 112.693 139.4 111.467 139.4C110.053 139.4 108.8 139.067 107.707 138.4C106.627 137.72 105.787 136.78 105.187 135.58C104.587 134.38 104.287 133.02 104.287 131.5C104.287 129.94 104.74 128.5 105.647 127.18C106.553 125.847 107.68 124.8 109.027 124.04C110.373 123.267 111.66 122.88 112.887 122.88ZM111.727 124.56C110.847 124.56 110.04 124.82 109.307 125.34C108.587 125.847 108.02 126.56 107.607 127.48C107.193 128.387 106.987 129.407 106.987 130.54C106.987 131.847 107.193 133.047 107.607 134.14C108.02 135.22 108.647 136.087 109.487 136.74C110.34 137.393 111.387 137.72 112.627 137.72C113.507 137.72 114.307 137.467 115.027 136.96C115.76 136.44 116.333 135.727 116.747 134.82C117.16 133.9 117.367 132.873 117.367 131.74C117.367 130.42 117.16 129.22 116.747 128.14C116.333 127.047 115.707 126.18 114.867 125.54C114.027 124.887 112.98 124.56 111.727 124.56ZM137.261 139.04H133.541L129.141 131.94L128.201 131.26L128.501 130.66H129.621C130.528 130.66 131.241 130.433 131.761 129.98C132.294 129.513 132.561 128.88 132.561 128.08C132.561 127.027 132.268 126.153 131.681 125.46C131.094 124.753 130.241 124.4 129.121 124.4C128.374 124.4 127.688 124.62 127.061 125.06V137.52L129.161 138.24L128.761 139.04H122.681V138.42L124.561 136.94V124.78L122.481 124.1L122.881 123.3H125.201C126.414 123.3 127.608 123.26 128.781 123.18C129.634 123.127 130.268 123.1 130.681 123.1C131.574 123.1 132.368 123.28 133.061 123.64C133.768 124 134.308 124.487 134.681 125.1C135.068 125.713 135.261 126.387 135.261 127.12C135.261 127.787 135.054 128.427 134.641 129.04C134.228 129.64 133.681 130.167 133.001 130.62C132.334 131.06 131.628 131.393 130.881 131.62L132.181 132.06L135.281 137.06L137.661 138.24L137.261 139.04ZM145.313 138.2L144.913 139H138.833V138.38L140.713 136.9V124.78L138.633 124.08L139.033 123.28H145.113V123.9L143.213 125.38V137.48L145.313 138.2ZM154.173 139H150.553L144.353 131.12L150.493 125.76L148.173 124.08L148.573 123.28H153.953V123.9L146.753 130.18L152.253 137.06L154.573 138.2L154.173 139ZM172.52 139H166.44V138.38L168.32 136.9V131.62H160.42V137.48L162.52 138.2L162.12 139H156.04V138.38L157.92 136.9V124.78L155.84 124.08L156.24 123.28H162.32V123.9L160.42 125.38V130.72H168.32V124.78L166.24 124.08L166.64 123.28H172.72V123.9L170.82 125.38V137.48L172.92 138.2L172.52 139ZM189.382 125.38V132.8C189.382 134.2 189.042 135.4 188.362 136.4C187.695 137.4 186.869 138.153 185.882 138.66C184.895 139.153 183.929 139.4 182.982 139.4C181.795 139.4 180.729 139.14 179.782 138.62C178.849 138.087 178.115 137.36 177.582 136.44C177.062 135.507 176.802 134.46 176.802 133.3V124.78L174.722 124.08L175.122 123.28H181.202V123.9L179.302 125.38V132.34C179.302 134.033 179.715 135.353 180.542 136.3C181.382 137.247 182.649 137.72 184.342 137.72C184.969 137.72 185.582 137.52 186.182 137.12C186.795 136.707 187.295 136.107 187.682 135.32C188.082 134.533 188.282 133.607 188.282 132.54V125.12L186.202 124.08L186.602 123.28H191.282V123.9L189.382 125.38ZM203.171 130.54C204.197 130.833 205.004 131.327 205.591 132.02C206.177 132.713 206.471 133.513 206.471 134.42C206.471 135.26 206.131 136.053 205.451 136.8C204.784 137.533 203.944 138.12 202.931 138.56C201.931 139 200.977 139.22 200.071 139.22C199.404 139.22 198.751 139.187 198.111 139.12C197.044 139.053 196.217 139.02 195.631 139.02H193.091V138.4L194.971 136.92V124.76L192.891 124.08L193.291 123.28H195.611C196.824 123.28 198.017 123.24 199.191 123.16C200.097 123.107 200.764 123.08 201.191 123.08C202.084 123.08 202.871 123.253 203.551 123.6C204.231 123.947 204.751 124.42 205.111 125.02C205.484 125.607 205.671 126.267 205.671 127C205.671 127.667 205.437 128.307 204.971 128.92C204.517 129.52 203.917 130.047 203.171 130.5V130.54ZM202.971 128C202.971 126.947 202.691 126.087 202.131 125.42C201.571 124.753 200.737 124.42 199.631 124.42C198.831 124.42 198.111 124.647 197.471 125.1V130.4H200.331C201.157 130.4 201.804 130.193 202.271 129.78C202.737 129.353 202.971 128.753 202.971 127.98V128ZM200.631 137.76C201.591 137.76 202.351 137.52 202.911 137.04C203.484 136.56 203.771 135.913 203.771 135.1C203.771 134.06 203.464 133.22 202.851 132.58C202.251 131.94 201.351 131.6 200.151 131.56C200.057 131.573 199.931 131.58 199.771 131.58H197.471V137.24C198.364 137.6 199.417 137.78 200.631 137.78V137.76Z" fill="black"/>
<g filter="url(#filter0_d_3_112)">
<path d="M161.952 51.8889L87.7581 3C29.8871 38.2 10.4731 50.2593 8 51.8889L87.7581 113L126.71 82.4444M126.71 82.4444L167.516 113L238 51.8889L167.516 3L85.9032 51.8889L126.71 82.4444Z" stroke="black" stroke-width="4" shape-rendering="crispEdges"/>
</g>
<defs>
<filter id="filter0_d_3_112" x="0.551407" y="0.621094" width="244.704" height="122.946" filterUnits="userSpaceOnUse" color-interpolation-filters="sRGB">
<feFlood flood-opacity="0" result="BackgroundImageFix"/>
<feColorMatrix in="SourceAlpha" type="matrix" values="0 0 0 0 0 0 0 0 0 0 0 0 0 0 0 0 0 0 127 0" result="hardAlpha"/>
<feOffset dy="4"/>
<feGaussianBlur stdDeviation="2"/>
<feComposite in2="hardAlpha" operator="out"/>
<feColorMatrix type="matrix" values="0 0 0 0 0 0 0 0 0 0 0 0 0 0 0 0 0 0 0.25 0"/>
<feBlend mode="normal" in2="BackgroundImageFix" result="effect1_dropShadow_3_112"/>
<feBlend mode="normal" in="SourceGraphic" in2="effect1_dropShadow_3_112" result="shape"/>
</filter>
</defs>
</svg>
