<svg width="360" height="74" viewBox="0 0 360 74" fill="none" xmlns="http://www.w3.org/2000/svg">
<path d="M134 21.656C134.848 21.656 135.824 21.776 136.928 22.016C138.048 22.256 138.864 22.512 139.376 22.784V27.44H138.464C136.992 24.928 135.04 23.672 132.608 23.672C131.552 23.672 130.584 23.984 129.704 24.608C128.84 25.216 128.16 26.072 127.664 27.176C127.168 28.264 126.92 29.488 126.92 30.848C126.92 32.416 127.16 33.848 127.64 35.144C128.136 36.44 128.88 37.48 129.872 38.264C130.88 39.048 132.12 39.44 133.592 39.44C134.952 39.44 136.904 38.416 139.448 36.368L140.168 37.52L135.752 40.952C135.16 41.16 134.584 41.296 134.024 41.36C133.48 41.44 132.888 41.48 132.248 41.48C130.568 41.48 129.08 41.072 127.784 40.256C126.488 39.44 125.48 38.32 124.76 36.896C124.04 35.456 123.68 33.824 123.68 32C123.68 30.128 124.224 28.4 125.312 26.816C126.4 25.216 127.752 23.96 129.368 23.048C130.984 22.12 132.528 21.656 134 21.656ZM153.688 21.656C155.384 21.656 156.88 22.064 158.176 22.88C159.488 23.696 160.504 24.824 161.224 26.264C161.944 27.704 162.304 29.336 162.304 31.16C162.304 33.032 161.76 34.76 160.672 36.344C159.584 37.928 158.232 39.184 156.616 40.112C155 41.024 153.456 41.48 151.984 41.48C150.288 41.48 148.784 41.08 147.472 40.28C146.176 39.464 145.168 38.336 144.448 36.896C143.728 35.456 143.368 33.824 143.368 32C143.368 30.128 143.912 28.4 145 26.816C146.088 25.216 147.44 23.96 149.056 23.048C150.672 22.12 152.216 21.656 153.688 21.656ZM152.296 23.672C151.24 23.672 150.272 23.984 149.392 24.608C148.528 25.216 147.848 26.072 147.352 27.176C146.856 28.264 146.608 29.488 146.608 30.848C146.608 32.416 146.856 33.856 147.352 35.168C147.848 36.464 148.6 37.504 149.608 38.288C150.632 39.072 151.888 39.464 153.376 39.464C154.432 39.464 155.392 39.16 156.256 38.552C157.136 37.928 157.824 37.072 158.32 35.984C158.816 34.88 159.064 33.648 159.064 32.288C159.064 30.704 158.816 29.264 158.32 27.968C157.824 26.656 157.072 25.616 156.064 24.848C155.056 24.064 153.8 23.672 152.296 23.672ZM190.569 24.512L184.809 40.232L182.313 41.456L178.497 30.152L174.921 40.232L172.425 41.456L166.257 24.464L163.977 23.096L164.457 22.136H171.033V22.88L169.281 24.2L174.273 38.264L177.849 28.28L176.553 24.44L174.345 23.096L174.825 22.136H181.881V22.88L179.745 24.536L184.209 38.216L189.153 24.536L184.881 23.096L185.361 22.136H192.657V22.88L190.569 24.512ZM204.664 21.656C206.36 21.656 207.856 22.064 209.152 22.88C210.464 23.696 211.48 24.824 212.2 26.264C212.92 27.704 213.28 29.336 213.28 31.16C213.28 33.032 212.736 34.76 211.648 36.344C210.56 37.928 209.208 39.184 207.592 40.112C205.976 41.024 204.432 41.48 202.96 41.48C201.264 41.48 199.76 41.08 198.448 40.28C197.152 39.464 196.144 38.336 195.424 36.896C194.704 35.456 194.344 33.824 194.344 32C194.344 30.128 194.888 28.4 195.976 26.816C197.064 25.216 198.416 23.96 200.032 23.048C201.648 22.12 203.192 21.656 204.664 21.656ZM203.272 23.672C202.216 23.672 201.248 23.984 200.368 24.608C199.504 25.216 198.824 26.072 198.328 27.176C197.832 28.264 197.584 29.488 197.584 30.848C197.584 32.416 197.832 33.856 198.328 35.168C198.824 36.464 199.576 37.504 200.584 38.288C201.608 39.072 202.864 39.464 204.352 39.464C205.408 39.464 206.368 39.16 207.232 38.552C208.112 37.928 208.8 37.072 209.296 35.984C209.792 34.88 210.04 33.648 210.04 32.288C210.04 30.704 209.792 29.264 209.296 27.968C208.8 26.656 208.048 25.616 207.04 24.848C206.032 24.064 204.776 23.672 203.272 23.672ZM233.913 41.048H229.449L224.169 32.528L223.041 31.712L223.401 30.992H224.745C225.833 30.992 226.689 30.72 227.313 30.176C227.953 29.616 228.273 28.856 228.273 27.896C228.273 26.632 227.921 25.584 227.217 24.752C226.513 23.904 225.489 23.48 224.145 23.48C223.249 23.48 222.425 23.744 221.673 24.272V39.224L224.193 40.088L223.713 41.048H216.417V40.304L218.673 38.528V23.936L216.177 23.12L216.657 22.16H219.441C220.897 22.16 222.329 22.112 223.737 22.016C224.761 21.952 225.521 21.92 226.017 21.92C227.089 21.92 228.041 22.136 228.873 22.568C229.721 23 230.369 23.584 230.817 24.32C231.281 25.056 231.513 25.864 231.513 26.744C231.513 27.544 231.265 28.312 230.769 29.048C230.273 29.768 229.617 30.4 228.801 30.944C228.001 31.472 227.153 31.872 226.257 32.144L227.817 32.672L231.537 38.672L234.393 40.088L233.913 41.048ZM243.575 40.04L243.095 41H235.799V40.256L238.055 38.48V23.936L235.559 23.096L236.039 22.136H243.335V22.88L241.055 24.656V39.176L243.575 40.04ZM254.207 41H249.863L242.423 31.544L249.791 25.112L247.007 23.096L247.487 22.136H253.943V22.88L245.303 30.416L251.903 38.672L254.687 40.04L254.207 41ZM276.224 41H268.928V40.256L271.184 38.48V32.144H261.704V39.176L264.224 40.04L263.744 41H256.448V40.256L258.704 38.48V23.936L256.208 23.096L256.688 22.136H263.984V22.88L261.704 24.656V31.064H271.184V23.936L268.688 23.096L269.168 22.136H276.464V22.88L274.184 24.656V39.176L276.704 40.04L276.224 41ZM296.458 24.656V33.56C296.458 35.24 296.05 36.68 295.234 37.88C294.434 39.08 293.442 39.984 292.258 40.592C291.074 41.184 289.914 41.48 288.778 41.48C287.354 41.48 286.074 41.168 284.938 40.544C283.818 39.904 282.938 39.032 282.298 37.928C281.674 36.808 281.362 35.552 281.362 34.16V23.936L278.866 23.096L279.346 22.136H286.642V22.88L284.362 24.656V33.008C284.362 35.04 284.858 36.624 285.85 37.76C286.858 38.896 288.378 39.464 290.41 39.464C291.162 39.464 291.898 39.224 292.618 38.744C293.354 38.248 293.954 37.528 294.418 36.584C294.898 35.64 295.138 34.528 295.138 33.248V24.344L292.642 23.096L293.122 22.136H298.738V22.88L296.458 24.656ZM313.005 30.848C314.237 31.2 315.205 31.792 315.909 32.624C316.613 33.456 316.965 34.416 316.965 35.504C316.965 36.512 316.557 37.464 315.741 38.36C314.941 39.24 313.933 39.944 312.717 40.472C311.517 41 310.373 41.264 309.285 41.264C308.485 41.264 307.701 41.224 306.933 41.144C305.653 41.064 304.661 41.024 303.957 41.024H300.909V40.28L303.165 38.504V23.912L300.669 23.096L301.149 22.136H303.933C305.389 22.136 306.821 22.088 308.229 21.992C309.317 21.928 310.117 21.896 310.629 21.896C311.701 21.896 312.645 22.104 313.461 22.52C314.277 22.936 314.901 23.504 315.333 24.224C315.781 24.928 316.005 25.72 316.005 26.6C316.005 27.4 315.725 28.168 315.165 28.904C314.621 29.624 313.901 30.256 313.005 30.8V30.848ZM312.765 27.8C312.765 26.536 312.429 25.504 311.757 24.704C311.085 23.904 310.085 23.504 308.757 23.504C307.797 23.504 306.933 23.776 306.165 24.32V30.68H309.597C310.589 30.68 311.365 30.432 311.925 29.936C312.485 29.424 312.765 28.704 312.765 27.776V27.8ZM309.957 39.512C311.109 39.512 312.021 39.224 312.693 38.648C313.381 38.072 313.725 37.296 313.725 36.32C313.725 35.072 313.357 34.064 312.621 33.296C311.901 32.528 310.821 32.12 309.381 32.072C309.269 32.088 309.117 32.096 308.925 32.096H306.165V38.888C307.237 39.32 308.501 39.536 309.957 39.536V39.512Z" fill="black"/>
<g filter="url(#filter0_d_3_222)">
<path d="M76.9435 31.7778L43.7177 10C17.8016 25.68 9.10753 31.0519 8 31.7778L43.7177 59L61.1613 45.3889M61.1613 45.3889L79.4355 59L111 31.7778L79.4355 10L42.8871 31.7778L61.1613 45.3889Z" stroke="black" stroke-width="4" shape-rendering="crispEdges"/>
</g>
<defs>
<filter id="filter0_d_3_222" x="0.539246" y="7.62476" width="117.727" height="61.9373" filterUnits="userSpaceOnUse" color-interpolation-filters="sRGB">
<feFlood flood-opacity="0" result="BackgroundImageFix"/>
<feColorMatrix in="SourceAlpha" type="matrix" values="0 0 0 0 0 0 0 0 0 0 0 0 0 0 0 0 0 0 127 0" result="hardAlpha"/>
<feOffset dy="4"/>
<feGaussianBlur stdDeviation="2"/>
<feComposite in2="hardAlpha" operator="out"/>
<feColorMatrix type="matrix" values="0 0 0 0 0 0 0 0 0 0 0 0 0 0 0 0 0 0 0.25 0"/>
<feBlend mode="normal" in2="BackgroundImageFix" result="effect1_dropShadow_3_222"/>
<feBlend mode="normal" in="SourceGraphic" in2="effect1_dropShadow_3_222" result="shape"/>
</filter>
</defs>
</svg>
