<svg width="85" height="124" viewBox="0 0 85 124" fill="none" xmlns="http://www.w3.org/2000/svg">
<path d="M84.25 42.5833C84.25 53.959 73.7361 80.5558 66.3571 92.4989C58.7794 104.764 54.1822 102.226 42.5 102.226C30.8178 102.226 26.2206 104.764 18.6429 92.4989C11.2639 80.5558 0.75 53.959 0.75 42.5833C0.75 19.5254 19.4421 0.833328 42.5 0.833328C65.5579 0.833328 84.25 19.5254 84.25 42.5833Z" fill="#591824"/>
<path fill-rule="evenodd" clip-rule="evenodd" d="M56.4167 118.081C56.4167 121.348 53.7686 123.996 50.5021 123.996H34.4979C31.2314 123.996 28.5833 121.348 28.5833 118.081C28.5833 114.815 31.2314 112.167 34.4979 112.167H50.5021C53.7686 112.167 56.4167 114.815 56.4167 118.081Z" fill="#591824"/>
</svg>
