<svg width="118" height="118" viewBox="0 0 118 118" fill="none" xmlns="http://www.w3.org/2000/svg">
<path fill-rule="evenodd" clip-rule="evenodd" d="M0.877083 20.75C0.877083 9.7975 9.75584 0.918747 20.7083 0.918747H34.625C45.5775 0.918747 54.4563 9.7975 54.4563 20.75V34.6667C54.4563 45.6192 45.5775 54.4979 34.625 54.4979H20.7083C9.75584 54.4979 0.877083 45.6192 0.877083 34.6667V20.75ZM20.7083 12.7479C16.2889 12.7479 12.7063 16.3306 12.7063 20.75V34.6667C12.7063 39.0861 16.2889 42.6687 20.7083 42.6687H34.625C39.0444 42.6687 42.6271 39.0861 42.6271 34.6667V20.75C42.6271 16.3306 39.0444 12.7479 34.625 12.7479H20.7083Z" fill="#591824"/>
<path fill-rule="evenodd" clip-rule="evenodd" d="M0.877083 83.375C0.877083 72.4225 9.75584 63.5437 20.7083 63.5437H34.625C45.5775 63.5437 54.4563 72.4225 54.4563 83.375V97.2916C54.4563 108.244 45.5775 117.123 34.625 117.123H20.7083C9.75584 117.123 0.877083 108.244 0.877083 97.2916V83.375ZM20.7083 75.3729C16.2889 75.3729 12.7063 78.9556 12.7063 83.375V97.2916C12.7063 101.711 16.2889 105.294 20.7083 105.294H34.625C39.0444 105.294 42.6271 101.711 42.6271 97.2916V83.375C42.6271 78.9556 39.0444 75.3729 34.625 75.3729H20.7083Z" fill="#591824"/>
<path fill-rule="evenodd" clip-rule="evenodd" d="M63.5021 20.75C63.5021 9.7975 72.3808 0.918747 83.3333 0.918747H97.25C108.202 0.918747 117.081 9.7975 117.081 20.75V34.6667C117.081 45.6192 108.202 54.4979 97.25 54.4979H83.3333C72.3808 54.4979 63.5021 45.6192 63.5021 34.6667V20.75ZM83.3333 12.7479C78.9139 12.7479 75.3312 16.3306 75.3312 20.75V34.6667C75.3312 39.0861 78.9139 42.6687 83.3333 42.6687H97.25C101.669 42.6687 105.252 39.0861 105.252 34.6667V20.75C105.252 16.3306 101.669 12.7479 97.25 12.7479H83.3333Z" fill="#591824"/>
<path fill-rule="evenodd" clip-rule="evenodd" d="M63.5021 83.375C63.5021 72.4225 72.3808 63.5437 83.3333 63.5437H97.25C108.202 63.5437 117.081 72.4225 117.081 83.375V97.2916C117.081 108.244 108.202 117.123 97.25 117.123H83.3333C72.3808 117.123 63.5021 108.244 63.5021 97.2916V83.375ZM83.3333 75.3729C78.9139 75.3729 75.3312 78.9556 75.3312 83.375V97.2916C75.3312 101.711 78.9139 105.294 83.3333 105.294H97.25C101.669 105.294 105.252 101.711 105.252 97.2916V83.375C105.252 78.9556 101.669 75.3729 97.25 75.3729H83.3333Z" fill="#591824"/>
</svg>
