<svg width="124" height="96" viewBox="0 0 124 96" fill="none" xmlns="http://www.w3.org/2000/svg">
<path fill-rule="evenodd" clip-rule="evenodd" d="M0 89.9146C0 93.1811 2.64805 95.8292 5.91458 95.8292H117.248C120.514 95.8292 123.163 93.1811 123.163 89.9146C123.163 86.648 120.514 84 117.248 84H5.91458C2.64805 84 0 86.648 0 89.9146Z" fill="#591824"/>
<path d="M6 20.875C6 9.34606 15.3461 0 26.875 0H96.4583C107.987 0 117.333 9.34606 117.333 20.875V62.625C117.333 74.1539 107.987 83.5 96.4583 83.5H26.875C15.3461 83.5 6 74.1539 6 62.625V20.875Z" fill="#591824"/>
</svg>
