<svg width="91" height="87" viewBox="0 0 91 87" fill="none" xmlns="http://www.w3.org/2000/svg">
<path d="M38.8822 5.2424C40.9652 -1.16838 50.0348 -1.16839 52.1178 5.2424L57.9979 23.3397C58.9295 26.2067 61.6012 28.1478 64.6157 28.1478H83.6443C90.385 28.1478 93.1877 36.7735 87.7344 40.7356L72.3399 51.9203C69.9011 53.6922 68.8806 56.833 69.8121 59.7L75.6923 77.7973C77.7753 84.2081 70.4379 89.539 64.9845 85.5769L49.59 74.3922C47.1512 72.6203 43.8488 72.6203 41.41 74.3922L26.0155 85.5769C20.5622 89.539 13.2247 84.2081 15.3077 77.7973L21.1879 59.7C22.1194 56.833 21.0989 53.6922 18.6601 51.9203L3.26564 40.7356C-2.1877 36.7735 0.614939 28.1478 7.35564 28.1478H26.3843C29.3988 28.1478 32.0705 26.2067 33.0021 23.3397L38.8822 5.2424Z" fill="#591824"/>
</svg>
