<svg width="85" height="113" viewBox="0 0 85 113" fill="none" xmlns="http://www.w3.org/2000/svg">
<path fill-rule="evenodd" clip-rule="evenodd" d="M0.75 21.7083C0.75 10.1794 10.0961 0.833328 21.625 0.833328H63.375C74.9039 0.833328 84.25 10.1794 84.25 21.7083V91.2917C84.25 102.821 74.9039 112.167 63.375 112.167H21.625C10.0961 112.167 0.75 102.821 0.75 91.2917V21.7083ZM27.7285 84.3333H57.2715C63.1713 84.3333 65.6259 73.9868 60.8545 69.2304L58.2685 66.6524C56.1861 64.5765 53.6774 63.4583 51.1024 63.4583H33.8976C31.3226 63.4583 28.8139 64.5765 26.7315 66.6524L24.1455 69.2304C19.3741 73.9868 21.8287 84.3333 27.7285 84.3333ZM42.5 56.5C50.186 56.5 56.4167 50.2693 56.4167 42.5833C56.4167 34.8974 50.186 28.6667 42.5 28.6667C34.814 28.6667 28.5833 34.8974 28.5833 42.5833C28.5833 50.2693 34.814 56.5 42.5 56.5Z" fill="#591824"/>
</svg>
