<svg width="125" height="92" viewBox="0 0 125 92" fill="none" xmlns="http://www.w3.org/2000/svg">
<path fill-rule="evenodd" clip-rule="evenodd" d="M112.978 42.0608C90.7346 2.80747 34.18 2.80747 11.9364 42.0608C10.326 44.9027 6.71661 45.9011 3.87465 44.2906C1.03269 42.6802 0.0343539 39.0708 1.6448 36.2289C28.4196 -11.0208 96.495 -11.0208 123.27 36.2289C124.88 39.0708 123.882 42.6802 121.04 44.2906C118.198 45.9011 114.589 44.9027 112.978 42.0608Z" fill="#591824"/>
<path fill-rule="evenodd" clip-rule="evenodd" d="M93.1001 54.7073C81.0835 28.4893 43.8309 28.4893 31.8144 54.7073C30.4534 57.6767 26.9428 58.9807 23.9733 57.6197C21.0038 56.2586 19.6999 52.7481 21.0609 49.7786C37.2944 14.3599 87.62 14.3599 103.854 49.7786C105.215 52.7481 103.911 56.2586 100.941 57.6197C97.9717 58.9807 94.4611 57.6767 93.1001 54.7073Z" fill="#591824"/>
<path fill-rule="evenodd" clip-rule="evenodd" d="M73.1311 66.9239C70.1263 56.1067 54.7884 56.1067 51.7836 66.9239C50.9093 70.0713 47.6491 71.914 44.5018 71.0398C41.3544 70.1655 39.5117 66.9053 40.386 63.7579C46.5994 41.3898 78.3153 41.3898 84.5287 63.7579C85.403 66.9053 83.5602 70.1655 80.4129 71.0398C77.2655 71.914 74.0053 70.0713 73.1311 66.9239Z" fill="#591824"/>
<path d="M72.2809 81.7134C72.2809 87.1388 67.8827 91.537 62.4573 91.537C57.0319 91.537 52.6338 87.1388 52.6338 81.7134C52.6338 76.288 57.0319 71.8899 62.4573 71.8899C67.8827 71.8899 72.2809 76.288 72.2809 81.7134Z" fill="#591824"/>
</svg>
